<?xml version="1.0" standalone="no"?>
<!DOCTYPE svg PUBLIC "-//W3C//DTD SVG 20010904//EN"
 "http://www.w3.org/TR/2001/REC-SVG-20010904/DTD/svg10.dtd">
<svg version="1.0" xmlns="http://www.w3.org/2000/svg"
 width="512.000000pt" height="512.000000pt" viewBox="0 0 512.000000 512.000000"
 preserveAspectRatio="xMidYMid meet">
<metadata>
Created by potrace 1.11, written by Peter Selinger 2001-2013
</metadata>
<g transform="translate(0.000000,512.000000) scale(0.100000,-0.100000)"
fill="#000000" stroke="none">
<path d="M608 5078 c-17 -3 -38 -14 -45 -24 -17 -23 -19 -4066 -2 -4111 12
-32 840 -867 882 -889 25 -14 218 -15 1553 -15 838 0 1532 2 1542 5 11 4 24
18 30 32 9 19 12 651 12 2489 l0 2464 -23 26 -22 26 -1947 2 c-1071 1 -1962
-1 -1980 -5z m1574 -539 c73 -15 163 -65 205 -113 20 -23 49 -69 66 -104 36
-77 34 -81 -74 -111 -104 -29 -113 -28 -128 14 -56 156 -301 177 -408 36 -51
-66 -68 -136 -68 -276 1 -187 43 -288 139 -334 143 -70 283 -11 342 145 20 53
26 53 139 16 92 -31 93 -34 49 -128 -75 -158 -202 -240 -386 -248 -329 -14
-548 249 -510 614 19 176 69 291 169 380 91 82 191 118 330 119 45 1 106 -4
135 -10z m622 -21 c8 -13 55 -144 106 -293 50 -148 103 -306 118 -350 22 -64
31 -80 47 -80 17 0 36 49 140 365 l121 365 107 3 c82 2 109 0 112 -11 3 -7
-79 -249 -183 -537 l-188 -525 -119 0 -119 0 -189 528 c-148 418 -185 532
-176 543 8 10 38 14 110 14 91 0 100 -2 113 -22z m1363 -1658 c65 -39 65 -126
0 -174 l-28 -21 -1606 0 c-1749 0 -1648 -3 -1679 56 -24 48 -18 87 20 125 l34
34 1614 0 c1581 0 1614 0 1645 -20z m-194 -920 l179 0 28 -29 c38 -38 47 -75
27 -117 -34 -71 111 -65 -1675 -65 -1242 1 -1616 3 -1637 13 -66 30 -73 138
-12 179 13 8 58 16 107 19 47 3 697 4 1445 3 748 -2 1440 -3 1538 -3z m-2266
-782 c8 -13 13 -809 5 -840 -12 -48 -50 -16 -460 395 -226 227 -412 417 -412
423 0 32 23 34 441 34 323 0 420 -3 426 -12z m2425 -157 c9 -1 30 -13 47 -27
38 -32 49 -80 27 -122 -34 -66 38 -62 -1029 -62 l-969 0 -34 34 c-25 25 -34
43 -34 68 0 53 37 97 89 108 20 4 1840 5 1903 1z"/>
</g>
</svg>
